<?xml version="1.0" encoding="utf-8"?>
<!-- Generator: Adobe Illustrator 27.2.0, SVG Export Plug-In . SVG Version: 6.00 Build 0)  -->
<svg version="1.1" id="Layer_1" xmlns="http://www.w3.org/2000/svg" xmlns:xlink="http://www.w3.org/1999/xlink" x="0px" y="0px"
	 viewBox="0 0 1920 339.6" style="enable-background:new 0 0 1920 339.6;" xml:space="preserve">
<style type="text/css">
	.st0{fill:#151515;}
	.st1{fill:#009E44;}
	.st2{fill:#EF5038;}
</style>
<g>
	<g>
		<path class="st0" d="M612,143.1c-17.4-16.5-39.3-24.7-65.8-24.7c-26.6,0-48.5,8.2-65.8,24.7c-17.3,16.5-26,37.7-26,63.5
			c0,25.8,8.7,47,26,63.5c17.3,16.5,39.3,24.7,65.8,24.7c26.5,0,48.5-8.2,65.8-24.7c17.3-16.5,26-37.7,26-63.5
			C638,180.8,629.3,159.6,612,143.1z M579.5,240.5c-8.6,8.5-19.7,12.7-33.4,12.7c-13.6,0-24.8-4.2-33.5-12.7
			c-8.7-8.5-13.1-19.8-13.1-33.9c0-14.1,4.4-25.4,13.1-33.9c8.7-8.5,19.9-12.7,33.5-12.7c13.6,0,24.7,4.3,33.4,12.7
			c8.6,8.5,12.9,19.8,12.9,33.9C592.4,220.7,588.1,232,579.5,240.5z"/>
		<path class="st0" d="M824,142c-15.2-15.8-34.1-23.7-56.9-23.7c-25.3,0-43.8,9.6-55.2,28.7h-0.7v-16c0-4-3.3-7.3-7.3-7.3h-29.2
			c-4,0-7.3,3.3-7.3,7.3v201.3c0,4,3.3,7.3,7.3,7.3h29.2c4,0,7.3-3.3,7.3-7.3v-66.1h0.7c11.5,19.1,29.9,28.7,55.2,28.7
			c22.7,0,41.7-7.9,56.9-23.7c15.2-15.8,22.8-37.3,22.8-64.6C846.7,179.4,839.2,157.8,824,142z M788.5,240.3
			c-8.2,8.6-19.1,12.9-32.5,12.9c-13.4,0-24.2-4.3-32.5-12.9c-8.2-8.6-12.4-19.8-12.4-33.7c0-13.9,4.1-25.1,12.4-33.7
			c8.2-8.6,19.1-12.9,32.5-12.9c13.4,0,24.2,4.3,32.5,12.9c8.2,8.6,12.4,19.8,12.4,33.7C800.8,220.5,796.7,231.7,788.5,240.3z"/>
		<path class="st0" d="M963.3,153.5V131c0-4-3.3-7.3-7.3-7.3h-26.8V86.3c0-4-3.3-7.3-7.3-7.3h-29.6c-4,0-7.3,3.3-7.3,7.3v37.4h-23.2
			c-4,0-7.3,3.3-7.3,7.3v22.4c0,4,3.3,7.3,7.3,7.3h23.2v80c0,16.3,4.3,28.5,12.9,36.8c8.6,8.2,20.9,12.4,36.9,12.4h12.1
			c4,0,7.3-3.3,7.3-7.3v-26.4c0-4-3.3-7.3-7.3-7.3h-0.3c-6.5,0-11-1.4-13.6-4.3c-2.6-2.9-3.9-7.7-3.9-14.3v-69.6h26.8
			C960.1,160.7,963.3,157.5,963.3,153.5z"/>
		<path class="st0" d="M1131.4,143.1c-17.4-16.5-39.3-24.7-65.8-24.7c-26.5,0-48.5,8.2-65.8,24.7c-17.4,16.5-26,37.7-26,63.5
			c0,25.8,8.7,47,26,63.5c17.3,16.5,39.3,24.7,65.8,24.7c26.6,0,48.5-8.2,65.8-24.7c17.3-16.5,26-37.7,26-63.5
			C1157.4,180.8,1148.7,159.6,1131.4,143.1z M1098.9,240.5c-8.6,8.5-19.7,12.7-33.4,12.7c-13.6,0-24.8-4.2-33.5-12.7
			c-8.7-8.5-13.1-19.8-13.1-33.9c0-14.1,4.4-25.4,13.1-33.9c8.7-8.5,19.9-12.7,33.5-12.7c13.6,0,24.8,4.3,33.4,12.7
			c8.6,8.5,12.9,19.8,12.9,33.9C1111.8,220.7,1107.5,232,1098.9,240.5z"/>
		<path class="st0" d="M1428.9,135.2c-10.8-11.2-24.6-16.9-41.6-16.9c-25.1,0-43.2,11-54.2,33h-0.7c-9.1-22-26.1-33-50.9-33
			c-24.4,0-41.3,10.2-50.6,30.5h-0.7v-17.8c0-4-3.3-7.3-7.3-7.3h-28.8c-4,0-7.3,3.3-7.3,7.3v151.1c0,4,3.3,7.3,7.3,7.3h29.2
			c4,0,7.3-3.3,7.3-7.3v-76.6c0-30.8,11.2-46.3,33.7-46.3c19.8,0,29.8,11.5,29.8,34.4v88.5c0,4,3.3,7.3,7.3,7.3h28.8
			c4,0,7.3-3.3,7.3-7.3v-77c0-30.6,11.1-45.9,33.4-45.9c20.1,0,30.1,11.5,30.1,34.4v88.5c0,4,3.3,7.3,7.3,7.3h29.5
			c4,0,7.3-3.3,7.3-7.3v-97.8C1445.1,162.9,1439.7,146.5,1428.9,135.2z"/>
		<path class="st0" d="M1615.6,123.8c-4,0-7.3,3.3-7.3,7.3v16.1h-0.7c-11.5-19.1-29.9-28.7-55.2-28.7c-22.7,0-41.7,7.9-56.9,23.7
			c-15.2,15.8-22.8,37.3-22.8,64.6c0,27.2,7.6,48.8,22.8,64.6c15.2,15.8,34.1,23.7,56.9,23.7c25.3,0,43.8-9.5,55.2-28.7h0.7v16.1
			c0,4,3.3,7.3,7.3,7.3h29.2c4,0,7.3-3.3,7.3-7.3V131c0-4-3.3-7.3-7.3-7.3H1615.6z M1595.9,240.3c-8.2,8.6-19.1,12.9-32.5,12.9
			c-13.4,0-24.2-4.3-32.5-12.9c-8.2-8.6-12.4-19.8-12.4-33.7c0-13.9,4.1-25.1,12.4-33.7c8.2-8.6,19.1-12.9,32.5-12.9
			c13.4,0,24.2,4.3,32.5,12.9c8.2,8.6,12.4,19.8,12.4,33.7C1608.3,220.5,1604.2,231.7,1595.9,240.3z"/>
		<path class="st0" d="M1788.3,118.7c-27.8,0-43.9,14.2-53,40.2h-0.7V131c0-4-3.2-7.2-7.2-7.2h-28.9c-4,0-7.2,3.2-7.2,7.2v151.2
			c0,4,3.2,7.2,7.2,7.2h29.3c4,0,7.2-3.2,7.2-7.2v-60.6c0-19.8,4.2-34.1,12.6-42.7c8.4-8.6,21.5-12.9,39.5-12.9h1.3
			c2,0,3.7-1.7,3.7-3.7v-39.9C1792,120.4,1790.3,118.7,1788.3,118.7L1788.3,118.7z"/>
		<path class="st0" d="M1920,153.6v-22.7c0-3.9-3.2-7.1-7.1-7.1h-26.9V86.2c0-3.9-3.2-7.1-7.1-7.1H1849c-3.9,0-7.1,3.2-7.1,7.1v37.6
			h-23.4c-3.9,0-7.1,3.2-7.1,7.1v22.7c0,3.9,3.2,7.1,7.1,7.1h23.4v80c0,16.3,4.3,28.5,12.9,36.8c8.6,8.2,20.9,12.4,37,12.4h12.1
			c4,0,7.2-3.2,7.2-7.2v-26.4c0-4-3.2-7.2-7.2-7.2h-0.3c-6.5,0-11-1.4-13.6-4.3c-2.6-2.9-4-7.7-4-14.3v-69.6h26.9
			C1916.8,160.7,1920,157.5,1920,153.6z"/>
	</g>
	<g>
		<path class="st1" d="M125,0H78v29.5c0,34.8,26.6,63.1,59.4,63.1h47.1V63.1C184.4,28.2,157.8,0,125,0z"/>
		<path class="st2" d="M377.1,118.5H250.2L317,32.9c3.3-4.2,2.5-10.2-1.7-13.5L293.4,2.3c-4.2-3.3-10.2-2.5-13.5,1.6L157.1,161.2
			c-2.7-6-2-13.1,2.3-18.6l18.9-24.2H17.5C7.8,118.5,0,126.3,0,136v29.4c0,9.7,7.8,17.5,17.5,17.5h12l19.7,130.8
			c2.2,14.8,14.9,25.7,29.9,25.7h239.3c15.2,0,28-11.3,30-26.4l16.7-130.2h12c9.7,0,17.5-7.8,17.5-17.5V136
			C394.6,126.3,386.7,118.5,377.1,118.5z M127.7,309.1h-14.1c-4.6,0-8.6-3.4-9.3-7.9L93,226.6c-0.9-5.7,3.5-10.8,9.2-10.8h20.2
			c4.9,0,9,3.8,9.3,8.7l5.4,74.6C137.5,304.5,133.2,309.1,127.7,309.1z M181.2,160.2c0-8.9,7.2-16.1,16.1-16.1
			c6.1,0,11.4,3.4,14.1,8.3c1.3,2.3,2,5,2,7.8c0,0.5,0,1.1-0.1,1.6c-0.1,0.5-0.1,1.1-0.3,1.6c-0.1,0.5-0.2,1.1-0.4,1.6
			c-0.1,0.4-0.3,0.8-0.5,1.3c-0.2,0.6-0.5,1.1-0.8,1.7c-0.1,0.1-0.1,0.2-0.2,0.3l-0.1,0.1c-0.7,1.1-1.5,2.2-2.4,3.1c0,0,0,0-0.1,0.1
			l-0.1,0.1c-0.7,0.7-1.4,1.3-2.2,1.8c-0.4,0.3-0.9,0.6-1.3,0.8c-0.9,0.5-1.9,0.9-2.9,1.2c-1,0.3-2.1,0.5-3.1,0.7
			c-0.6,0.1-1.1,0.1-1.7,0.1h-0.1c-0.4,0-0.8,0-1.2-0.1c-0.2,0-0.4-0.1-0.6-0.1c-0.1,0-0.1,0-0.2,0c-0.7-0.1-1.3-0.2-1.9-0.4
			c-0.1,0-0.2-0.1-0.3-0.1c-0.7-0.2-1.4-0.4-2.1-0.7c-0.1-0.1-0.2-0.1-0.3-0.1c-0.4-0.2-0.7-0.3-1-0.5
			C184.6,171.6,181.2,166.3,181.2,160.2z M213.9,301.5c-0.3,5-4.4,8.9-9.3,8.9h-14.4c-5,0-9.2-4-9.3-9l-2.8-77
			c-0.2-5.3,4-9.7,9.4-9.7h21.5c5.4,0,9.6,4.5,9.3,9.9L213.9,301.5z M301.6,226.6l-11.4,74.6c-0.7,4.6-4.6,7.9-9.2,7.9h-14.4
			c-5.5,0-9.8-4.8-9.3-10.2l7.1-74.6c0.5-4.8,4.5-8.5,9.3-8.5h18.7C298.1,215.8,302.5,220.9,301.6,226.6z"/>
	</g>
</g>
</svg>
